<svg width="126" height="48" viewBox="0 0 126 48" fill="none" xmlns="http://www.w3.org/2000/svg">
<path d="M14.4 37.5H9.84742L0.0989691 13.3021H4.70103L12.1237 31.3639L19.5959 13.3021H24.1485L14.4 37.5ZM45.4632 30.8196L48.0859 33.4918C45.5787 36.3619 42.4777 37.7969 38.7828 37.7969C35.121 37.7969 32.0694 36.6258 29.6282 34.2835C27.2199 31.9082 26.0158 28.9227 26.0158 25.3268C26.0158 21.6979 27.2529 18.6959 29.7272 16.3206C32.2014 13.9124 35.3189 12.7082 39.0797 12.7082C42.7746 12.7082 45.8921 14.0938 48.4323 16.8649L45.8591 19.6856C44.7045 18.5639 43.6158 17.7887 42.5931 17.3598C41.5705 16.9309 40.3663 16.7165 38.9808 16.7165C36.5065 16.7165 34.4282 17.5082 32.7457 19.0918C31.0962 20.6753 30.2715 22.6876 30.2715 25.1289C30.2715 27.5371 31.0962 29.5825 32.7457 31.2649C34.3952 32.9474 36.3581 33.7887 38.6344 33.7887C40.0199 33.7887 41.2076 33.5577 42.1973 33.0959C43.2199 32.634 44.3086 31.8753 45.4632 30.8196ZM53.0993 37.5V13.3021H57.2065V33.6402H68.2416V37.5H53.0993Z" fill="white"/>
<path d="M91.5 7.5V40.5H94.5V7.5H91.5ZM109.5 7.5V40.5H112.5V7.5H109.5ZM85.5 16.5V31.5H88.5V16.5H85.5ZM103.5 16.5V31.5H106.5V16.5H103.5ZM115.5 16.5V31.5H118.5V16.5H115.5ZM79.5 21V27H82.5V21H79.5ZM97.5 21V27H100.5V21H97.5ZM121.5 21V27H124.5V21H121.5Z" fill="#9077FF"/>
</svg>
